<svg width="220" height="54" viewBox="0 0 220 54" fill="none" xmlns="http://www.w3.org/2000/svg">
<path d="M33.6313 8.48813C33.6313 7.12125 32.6695 5.99063 31.4038 5.70375C31.2964 5.67897 31.1962 5.62945 31.1112 5.55915C31.0263 5.48884 30.9589 5.39967 30.9145 5.29875C30.5263 4.16813 29.4632 3.375 28.2145 3.375C27.6227 3.37555 27.0456 3.5591 26.5622 3.90048C26.0788 4.24186 25.7129 4.72437 25.5145 5.28188C25.447 5.50125 25.2613 5.63625 25.042 5.68687C23.7595 5.97375 22.8145 7.12125 22.8145 8.48813C22.8145 9.855 23.7763 10.9856 25.042 11.2725C25.2613 11.3231 25.447 11.475 25.5313 11.6775C25.9195 12.7913 26.9826 13.5844 28.2313 13.5844C28.8231 13.5838 29.4002 13.4003 29.8836 13.0589C30.3669 12.7175 30.7329 12.235 30.9313 11.6775C30.9988 11.4581 31.2013 11.3062 31.4207 11.2725C32.6695 10.9856 33.6313 9.83813 33.6313 8.48813Z" fill="#F9C23C"/>
<path d="M32.1681 8.86305C32.7067 8.41284 33.3866 8.1667 34.0885 8.1678C35.3879 8.1678 36.5016 8.99467 36.9066 10.159C36.991 10.3953 37.1766 10.5472 37.4129 10.5978C38.7629 10.9015 39.7585 12.0828 39.7585 13.5172C39.7585 14.9515 38.7629 16.1328 37.4129 16.4365C37.1766 16.4872 36.991 16.6559 36.9066 16.8753C36.5016 18.0397 35.3879 18.8665 34.0885 18.8665C33.5828 18.867 33.0853 18.739 32.6426 18.4946C32.1998 18.2502 31.8264 17.8974 31.5573 17.4693C31.0803 17.7964 30.5156 17.9717 29.9373 17.9722C28.6885 17.9722 27.6254 17.179 27.2373 16.0653C27.1928 15.9644 27.1255 15.8752 27.0405 15.8049C26.9555 15.7346 26.8554 15.6851 26.7479 15.6603C26.5928 15.6233 26.4406 15.5754 26.2923 15.5169C25.8709 15.9795 25.3169 16.3007 24.706 16.4365C24.4698 16.4872 24.2841 16.6559 24.1998 16.8753C23.7948 18.0397 22.681 18.8665 21.3816 18.8665C20.0823 18.8665 18.9685 18.0397 18.5635 16.8753C18.5278 16.7626 18.4616 16.662 18.3722 16.5846C18.2829 16.5071 18.1739 16.4559 18.0573 16.4365C17.3951 16.287 16.8037 15.9163 16.3804 15.3857C15.9571 14.855 15.7272 14.196 15.7285 13.5172C15.7285 12.0828 16.7241 10.9015 18.0573 10.5978C18.2935 10.5472 18.496 10.3953 18.5635 10.159C18.9854 8.99467 20.0823 8.1678 21.3985 8.1678C22.6979 8.1678 23.8116 8.99467 24.2166 10.159C24.301 10.3953 24.4866 10.5472 24.7229 10.5978C24.9569 10.6495 25.1774 10.7266 25.3844 10.829C25.7556 10.4695 26.218 10.2097 26.731 10.0915C26.9504 10.0578 27.1529 9.90592 27.2204 9.68655C27.392 9.20453 27.6894 8.77718 28.0818 8.4488C28.4742 8.12042 28.9472 7.90296 29.452 7.81896C29.9567 7.73495 30.4747 7.78746 30.9523 7.97105C31.4299 8.15463 31.8497 8.4626 32.1681 8.86305Z" fill="#FCD53F"/>
<path d="M32.9573 14.2085C34.0609 14.2085 35.0329 14.8059 35.5476 15.7002C35.8242 15.3114 36.1899 14.9945 36.6142 14.7761C37.0384 14.5576 37.5088 14.444 37.986 14.4447C39.2854 14.4447 40.3991 15.2716 40.8041 16.436C40.8885 16.6722 41.0741 16.8241 41.3104 16.8747C42.6604 17.1785 43.656 18.3597 43.656 19.7941C43.656 21.2116 42.6604 22.4097 41.3104 22.7135C41.0741 22.7641 40.8885 22.9329 40.8041 23.1522C40.3991 24.3166 39.2854 25.1435 37.986 25.1435C36.8807 25.1435 35.9104 24.5461 35.3957 23.6517C35.1191 24.0406 34.7534 24.3575 34.3291 24.5759C33.9049 24.7944 33.4345 24.908 32.9573 24.9072C32.3646 24.9079 31.7852 24.7322 31.2926 24.4026C30.8001 24.0729 30.4168 23.6042 30.1915 23.0561C29.854 23.2349 29.476 23.3514 29.076 23.3885C27.7935 23.5066 26.646 22.8147 26.1229 21.7516C25.912 22.1736 25.6041 22.5396 25.2245 22.8197C24.8449 23.0998 24.4044 23.2859 23.939 23.363C23.4736 23.44 22.9966 23.4057 22.547 23.2629C22.0974 23.1201 21.688 22.8729 21.3523 22.5414C21.1836 22.6145 21.0075 22.6719 20.8241 22.7135C20.5879 22.7641 20.4023 22.9329 20.3179 23.1522C19.9129 24.3166 18.7991 25.1435 17.4998 25.1435C16.2004 25.1435 15.0866 24.3166 14.6816 23.1522C14.6427 23.0414 14.5756 22.9426 14.4868 22.8656C14.398 22.7887 14.2907 22.7362 14.1754 22.7135C13.5096 22.5677 12.9137 22.1987 12.4864 21.6677C12.0591 21.1367 11.8262 20.4757 11.8262 19.7941C11.8262 19.1126 12.0591 18.4515 12.4864 17.9205C12.9137 17.3895 13.5096 17.0205 14.1754 16.8747C14.4116 16.8241 14.5973 16.6554 14.6816 16.436C15.0866 15.2716 16.2004 14.4447 17.4998 14.4447C18.816 14.4447 19.9129 15.2716 20.3179 16.436C20.4023 16.6722 20.5879 16.8241 20.8241 16.8747C21.3878 17.0013 21.8906 17.2814 22.2838 17.6679C22.3592 17.6375 22.4351 17.6094 22.5116 17.5835C22.8323 17.4822 23.0854 17.2291 23.2035 16.9085C23.5916 15.6935 24.7054 14.8329 26.0385 14.8329C26.6736 14.8313 27.2926 15.0321 27.8057 15.4063C28.3189 15.7805 28.6994 16.3084 28.8921 16.9136C29.1238 16.7898 29.3708 16.6981 29.6329 16.6385C29.8691 16.5879 30.0548 16.4191 30.1391 16.1997C30.5441 15.0354 31.6579 14.2085 32.9573 14.2085Z" fill="#FFF478"/>
<path d="M23.1866 23.8446C23.1639 23.2877 23.254 22.7318 23.4515 22.2106C23.6491 21.6894 23.95 21.2134 24.3362 20.8115C24.7224 20.4095 25.1859 20.0898 25.6989 19.8716C26.2118 19.6533 26.7636 19.541 27.321 19.5415C29.6666 19.5415 31.5397 21.499 31.4554 23.8446L37.7835 22.9334C37.9354 21.1615 39.4035 19.7946 41.1922 19.7946C43.2847 19.7946 44.8879 21.6678 44.5504 23.7434L40.6185 48.634C40.4329 49.7984 39.4204 50.659 38.2391 50.659H35.5897L33.2154 43.5445L30.4091 50.6421H24.2329L22.0627 45.0666L19.1197 50.659H16.4704C15.2891 50.659 14.2766 49.7984 14.091 48.634L10.1591 23.7434C9.83849 21.6678 11.4416 19.7946 13.5341 19.7946C15.3229 19.7946 16.8079 21.1615 16.926 22.9334L23.1866 23.8446Z" fill="#F8312F"/>
<path d="M19.0364 50.6588L16.8596 23.1863C16.7077 21.3469 18.1589 19.7944 19.9814 19.7944C21.6689 19.7944 23.0527 21.1276 23.1202 22.8151L24.2339 50.6588H19.0364ZM30.4102 50.6588L31.5071 22.8151C31.5563 21.9826 31.9342 21.2038 32.5576 20.65C33.1811 20.0962 33.999 19.8127 34.8314 19.8619C35.6639 19.9112 36.4427 20.2891 36.9965 20.9125C37.5503 21.536 37.8338 22.3539 37.7846 23.1863L35.6077 50.6588H30.4102Z" fill="#F4F4F4"/>
<path d="M73.463 37.8948C70.0414 37.8948 67.1023 36.7323 64.6458 34.4074C62.1893 32.0605 60.961 29.1763 60.961 25.7547C60.961 22.3112 62.0357 19.4269 64.1852 17.102C66.3347 14.7551 69.0873 13.5817 72.4431 13.5817C75.0751 13.5817 77.74 14.0204 80.4378 14.8977L80.0101 16.2137C77.3781 15.4241 74.8558 15.0293 72.4431 15.0293C69.5698 15.0293 67.223 16.0602 65.4025 18.1219C63.582 20.1836 62.6718 22.706 62.6718 25.6889C62.6718 28.6718 63.7246 31.2161 65.8302 33.3217C67.9577 35.4054 70.502 36.4472 73.463 36.4472C76.0511 36.4472 78.2883 36.0524 80.1746 35.2628L80.6681 36.3814C79.8346 36.8639 78.738 37.2368 77.3781 37.5C76.0402 37.7632 74.7351 37.8948 73.463 37.8948ZM86.4624 37.5V16.1479H87.9758V37.5H86.4624ZM95.8761 37.5V16.0163H96.5999L110.615 32.1373C111.12 32.7076 111.58 33.2778 111.997 33.8481C112.436 34.3964 112.666 34.6816 112.688 34.7035C112.644 34.1771 112.622 33.1462 112.622 31.6109V16.1479H114.136V37.6316H113.412L99.1332 21.2474L97.3237 19.0431C97.3676 19.4818 97.3895 20.5126 97.3895 22.1357V37.5H95.8761ZM122.029 37.5V16.1479H131.998V17.4639H123.542V25.2283H131.175V26.5114H123.542V36.1182H132.327V37.5H122.029ZM130.287 12.6934L125.484 14.4371L124.365 14.1081L130.09 10.9497L130.287 12.6934ZM142.199 17.4968H134.961V16.1479H150.918V17.4968H143.68V37.5H142.199V17.4968ZM171.73 37.5V26.7088H156.892V37.5H155.379V16.1479H156.892V25.3599H171.73V16.1479H173.244V37.5H171.73ZM190.589 37.829C187.54 37.829 184.985 36.7652 182.923 34.6377C180.861 32.5102 179.83 29.9111 179.83 26.8404C179.83 23.7478 180.861 21.1377 182.923 19.0102C184.985 16.8827 187.54 15.8189 190.589 15.8189C193.637 15.8189 196.193 16.8827 198.254 19.0102C200.316 21.1377 201.347 23.7478 201.347 26.8404C201.347 29.9111 200.316 32.5102 198.254 34.6377C196.193 36.7652 193.637 37.829 190.589 37.829ZM190.589 17.1678C187.957 17.1678 185.763 18.1 184.009 19.9643C182.276 21.8286 181.409 24.1207 181.409 26.8404C181.409 29.5382 182.276 31.8193 184.009 33.6836C185.763 35.526 187.957 36.4472 190.589 36.4472C193.242 36.4472 195.436 35.526 197.169 33.6836C198.901 31.8193 199.768 29.5382 199.768 26.8404C199.768 24.1207 198.901 21.8286 197.169 19.9643C195.436 18.1 193.242 17.1678 190.589 17.1678ZM212.252 17.0691C211.067 17.0691 210.102 17.3542 209.356 17.9245C208.611 18.4948 208.238 19.2953 208.238 20.3262C208.238 21.5106 208.731 22.5744 209.718 23.5175C210.42 24.1974 211.319 24.9212 212.416 25.6889C213.535 26.4346 214.302 26.972 214.719 27.301C215.136 27.63 215.64 28.0796 216.233 28.6499C217.307 29.7246 217.845 30.9639 217.845 32.3676C217.845 34.1881 217.231 35.5699 216.002 36.513C214.796 37.4342 213.096 37.8948 210.903 37.8948C208.731 37.8948 206.911 37.3245 205.441 36.184L206.231 35.0325C207.722 36.0414 209.302 36.5459 210.969 36.5459C212.635 36.5459 213.93 36.195 214.851 35.4931C215.794 34.7912 216.265 33.8042 216.265 32.5321C216.265 31.4354 215.794 30.4265 214.851 29.5053C214.193 28.8473 213.304 28.1345 212.186 27.3668C211.089 26.5991 210.322 26.0508 209.883 25.7218C209.444 25.3709 208.929 24.9103 208.337 24.34C207.218 23.2214 206.659 21.9273 206.659 20.4578C206.659 18.9883 207.174 17.8368 208.205 17.0033C209.258 16.1698 210.705 15.7531 212.548 15.7531C214.39 15.7531 216.046 16.115 217.516 16.8388L216.956 18.0561C215.596 17.3981 214.028 17.0691 212.252 17.0691Z" fill="white"/>
</svg>
